<?xml version="1.0" encoding="UTF-8" standalone="no"?>
<!-- Created with Inkscape (http://www.inkscape.org/) -->

<svg
   xmlns:dc="http://purl.org/dc/elements/1.1/"
   xmlns:cc="http://creativecommons.org/ns#"
   xmlns:rdf="http://www.w3.org/1999/02/22-rdf-syntax-ns#"
   xmlns:svg="http://www.w3.org/2000/svg"
   xmlns="http://www.w3.org/2000/svg"
   xmlns:sodipodi="http://sodipodi.sourceforge.net/DTD/sodipodi-0.dtd"
   xmlns:inkscape="http://www.inkscape.org/namespaces/inkscape"
   width="744.09448819"
   height="1052.3622047"
   id="svg2"
   version="1.1"
   inkscape:version="0.48.5 r10040"
   sodipodi:docname="qclsip_logo.svg">
  <defs
     id="defs4">
    <inkscape:path-effect
       effect="spiro"
       id="path-effect3759"
       is_visible="true" />
  </defs>
  <sodipodi:namedview
     id="base"
     pagecolor="#ffffff"
     bordercolor="#666666"
     borderopacity="1.0"
     inkscape:pageopacity="0.0"
     inkscape:pageshadow="2"
     inkscape:zoom="1.7630555"
     inkscape:cx="270.23799"
     inkscape:cy="674.92921"
     inkscape:document-units="px"
     inkscape:current-layer="layer1"
     showgrid="true"
     inkscape:window-width="2560"
     inkscape:window-height="1374"
     inkscape:window-x="0"
     inkscape:window-y="27"
     inkscape:window-maximized="1"
     inkscape:snap-grids="false"
     inkscape:snap-bbox="true"
     inkscape:snap-bbox-midpoints="true">
    <inkscape:grid
       type="xygrid"
       id="grid3784" />
  </sodipodi:namedview>
  <metadata
     id="metadata7">
    <rdf:RDF>
      <cc:Work
         rdf:about="">
        <dc:format>image/svg+xml</dc:format>
        <dc:type
           rdf:resource="http://purl.org/dc/dcmitype/StillImage" />
        <dc:title />
      </cc:Work>
    </rdf:RDF>
  </metadata>
  <g
     inkscape:label="Layer 1"
     inkscape:groupmode="layer"
     id="layer1">
    <g
       style="font-size:40px;font-style:normal;font-variant:normal;font-weight:bold;font-stretch:normal;line-height:125%;letter-spacing:0px;word-spacing:0px;fill:#000000;fill-opacity:1;stroke:none;font-family:Secession;-inkscape-font-specification:Secession Bold"
       id="text2994"
       transform="translate(-30.061447,45.942966)">
      <path
         d="m 175.45635,203.80063 c -3e-5,13.53606 0.33597,24.52805 1.008,32.976 0.67197,8.35203 2.11197,15.02402 4.32,20.016 2.30397,4.89601 5.80796,7.34401 10.512,7.344 0.76796,10e-6 1.39196,-0.096 1.872,-0.288 0.47995,-0.19199 0.81595,-0.33599 1.008,-0.432 l -2.736,-1.152 7.92,-11.664 c 1.82395,0.48002 3.31195,1.10402 4.464,1.872 1.34394,-3.93597 2.20794,-8.54397 2.592,-13.824 0.47994,-5.27996 0.71994,-11.99995 0.72,-20.16 l 0,-14.688 c -6e-5,-8.73592 -1.10406,-15.21591 -3.312,-19.44 -2.59205,-4.8959 -6.72005,-7.3439 -12.384,-7.344 -5.76004,1e-4 -9.88803,2.3041 -12.384,6.912 -2.40003,4.51209 -3.60003,11.13608 -3.6,19.872 m 16.128,76.464 c -9.69603,-1e-5 -17.28003,-3.984 -22.752,-11.952 -4.70402,-6.81599 -7.96801,-16.46398 -9.792,-28.944 -1.34401,-9.21596 -2.01601,-21.07194 -2.016,-35.568 -1e-5,-13.05592 2.11199,-22.99191 6.336,-29.808 5.47198,-8.92789 14.83197,-13.39189 28.08,-13.392 12.76794,1.1e-4 21.93594,4.41611 27.504,13.248 4.41593,7.00809 6.62392,16.99208 6.624,29.952 -8e-5,16.70405 -0.67208,29.32804 -2.016,37.872 -1.34407,8.44802 -3.26407,15.40802 -5.76,20.88 4.79993,3.74401 9.02392,8.208 12.672,13.392 3.74391,5.18399 7.00791,11.08799 9.792,17.712 l -15.408,9.504 c -4.41607,-11.80802 -10.17607,-20.92801 -17.28,-27.36 -4.22405,2.976 -9.55205,4.46399 -15.984,4.464"
         style="font-size:144px"
         id="path4059"
         inkscape:connector-curvature="0" />
      <path
         d="m 285.17985,262.69663 0,17.568 c -9.79205,-1e-5 -18.81604,-4.752 -27.072,-14.256 -7.00802,-8.06398 -12.67202,-18.52797 -16.992,-31.392 -3.93601,-11.61595 -5.90401,-22.17594 -5.904,-31.68 -1e-5,-11.42392 2.25599,-20.78391 6.768,-28.08 5.85598,-9.50389 15.02397,-14.25589 27.504,-14.256 2.78395,1.1e-4 6.81595,0.48011 12.096,1.44 2.49594,0.48011 5.66394,1.10411 9.504,1.872 l 0,16.128 c -4.80006,-1.2479 -8.88006,-2.0639 -12.24,-2.448 -3.36005,-0.3839 -6.48005,-0.5759 -9.36,-0.576 -6.43204,1e-4 -10.84803,2.5921 -13.248,7.776 -1.72803,3.74409 -2.59203,9.79208 -2.592,18.144 -3e-5,12.38406 2.97597,25.05605 8.928,38.016 6.62396,14.49602 14.15995,21.74401 22.608,21.744"
         style="font-size:144px"
         id="path4061"
         inkscape:connector-curvature="0" />
      <path
         d="m 298.2456,162.61663 17.856,0 0,100.08 35.568,0 0,15.552 -53.424,0 0,-115.632"
         style="font-size:144px"
         id="path4063"
         inkscape:connector-curvature="0" />
      <path
         d="m 387.5076,280.26463 c -7.29603,-1e-5 -13.44003,-0.48 -18.432,-1.44 -4.89602,-0.96 -9.69601,-2.352 -14.4,-4.176 l 0,-17.424 c 6.43199,2.59202 11.85598,4.36801 16.272,5.328 4.51197,0.86401 9.64797,1.29601 15.408,1.296 4.70396,10e-6 8.25595,-1.15199 10.656,-3.456 2.87995,-2.78398 4.31995,-7.29598 4.32,-13.536 -5e-5,-5.95197 -3.60005,-12.09596 -10.8,-18.432 -6.81603,-5.95195 -13.58403,-11.90394 -20.304,-17.856 -7.29601,-8.15993 -10.94401,-17.32792 -10.944,-27.504 -10e-6,-6.4319 2.20799,-11.6639 6.624,-15.696 4.99198,-4.51189 12.23997,-6.76789 21.744,-6.768 2.78396,1.1e-4 5.90396,0.33611 9.36,1.008 3.45595,0.67211 7.19994,1.58411 11.232,2.736 l 0,15.984 c -4.32005,-1.1519 -8.40005,-1.9679 -12.24,-2.448 -3.74404,-0.5759 -6.67204,-0.8639 -8.784,-0.864 -6.72003,1e-4 -10.08003,3.02409 -10.08,9.072 -3e-5,5.47208 3.64797,11.42408 10.944,17.856 6.81595,5.95207 13.67995,11.90406 20.592,17.856 7.39193,7.96805 11.08793,16.41604 11.088,25.344 -7e-5,10.08002 -3.31207,18.24001 -9.936,24.48 -6.14405,5.76 -13.58405,8.63999 -22.32,8.64"
         style="font-size:144px"
         id="path4065"
         inkscape:connector-curvature="0" />
      <path
         d="m 428.1831,162.61663 17.856,0 0,115.632 -17.856,0 0,-115.632"
         style="font-size:144px"
         id="path4067"
         inkscape:connector-curvature="0" />
      <path
         d="m 457.4331,278.24863 0,-115.632 29.952,0 c 7.10395,1.1e-4 13.34395,2.78411 18.72,8.352 5.37594,5.5681 8.06393,12.09609 8.064,19.584 -7e-5,11.52007 -3.74406,21.93606 -11.232,31.248 -7.00805,8.73604 -16.22404,15.31204 -27.648,19.728 l 0,36.72 -17.856,0 m 17.856,-100.08 0,44.784 c 6.33597,-3.16794 11.32796,-7.39194 14.976,-12.672 3.64795,-5.37593 5.47195,-11.75992 5.472,-19.152 -5e-5,-4.03191 -1.00805,-7.19991 -3.024,-9.504 -2.01604,-2.3039 -4.65604,-3.4559 -7.92,-3.456 l -9.504,0"
         style="font-size:144px"
         id="path4069"
         inkscape:connector-curvature="0" />
    </g>
    <g
       style="font-size:40px;font-style:normal;font-variant:normal;font-weight:bold;font-stretch:normal;line-height:125%;letter-spacing:0px;word-spacing:0px;fill:#0065bd;fill-opacity:1;stroke:none;font-family:Secession;-inkscape-font-specification:Secession Bold"
       id="text2998"
       transform="translate(6.8063654,-67.496457)">
      <path
         d="m 144.08579,414.68328 17.6,0 0,4.32 -6.32,0 0,27.8 -4.96,0 0,-27.8 -6.32,0 0,-4.32"
         id="path4072"
         inkscape:connector-curvature="0" />
      <path
         d="m 163.56704,414.68328 4.72,0 0,9.36 c 2.77333,0.45336 4.89332,1.16003 6.36,2.12 2.21332,1.44002 3.31999,3.52002 3.32,6.24 l 0,14.4 -4.72,0 0,-13.92 c -1e-5,-1.54665 -0.45334,-2.62665 -1.36,-3.24 -0.64001,-0.42665 -1.84001,-0.74665 -3.6,-0.96 l 0,18.12 -4.72,0 0,-32.12"
         id="path4074"
         inkscape:connector-curvature="0" />
      <path
         d="m 194.83454,434.24328 -9.96,0 c 0,2.61335 0.61333,4.68001 1.84,6.2 1.25333,1.52001 3.02666,2.28001 5.32,2.28 l 0,4.4 c -3.97334,0 -7.04,-1.52 -9.2,-4.56 -1.78667,-2.50666 -2.68,-5.39999 -2.68,-8.68 0,-2.87998 0.61333,-5.19998 1.84,-6.96 1.33333,-1.91997 3.18666,-2.87997 5.56,-2.88 2.34666,3e-5 4.14666,0.90669 5.4,2.72 1.25332,1.81336 1.87999,4.30669 1.88,7.48 m -7.28,-5.88 c -1.38667,2e-5 -2.25334,0.57335 -2.6,1.72 l 5.08,0 c -0.16001,-0.50665 -0.46668,-0.91998 -0.92,-1.24 -0.45334,-0.31998 -0.97334,-0.47998 -1.56,-0.48"
         id="path4076"
         inkscape:connector-curvature="0" />
      <path
         d="m 211.02142,426.12328 c -1e-5,3.76002 0.0933,6.81335 0.28,9.16 0.18666,2.32001 0.58666,4.17334 1.2,5.56 0.63999,1.36001 1.61332,2.04001 2.92,2.04 0.21332,10e-6 0.38665,-0.0267 0.52,-0.08 0.13332,-0.0533 0.22665,-0.0933 0.28,-0.12 l -0.76,-0.32 2.2,-3.24 c 0.50665,0.13334 0.91998,0.30668 1.24,0.52 0.37331,-1.09332 0.61331,-2.37332 0.72,-3.84 0.13331,-1.46665 0.19998,-3.33332 0.2,-5.6 l 0,-4.08 c -2e-5,-2.42664 -0.30669,-4.22664 -0.92,-5.4 -0.72002,-1.35997 -1.86668,-2.03997 -3.44,-2.04 -1.60001,3e-5 -2.74668,0.64003 -3.44,1.92 -0.66668,1.25336 -1.00001,3.09336 -1,5.52 m 4.48,21.24 c -2.69335,0 -4.80001,-1.10666 -6.32,-3.32 -1.30667,-1.89332 -2.21334,-4.57332 -2.72,-8.04 -0.37334,-2.55998 -0.56001,-5.85331 -0.56,-9.88 -1e-5,-3.62664 0.58666,-6.38664 1.76,-8.28 1.51999,-2.47996 4.11999,-3.71996 7.8,-3.72 3.54665,4e-5 6.09331,1.2267 7.64,3.68 1.22664,1.9467 1.83998,4.72003 1.84,8.32 -2e-5,4.64002 -0.18669,8.14668 -0.56,10.52 -0.37336,2.34668 -0.90669,4.28001 -1.6,5.8 1.33331,1.04001 2.50664,2.28001 3.52,3.72 1.03997,1.44 1.94664,3.08 2.72,4.92 l -4.28,2.64 c -1.22669,-3.28 -2.82669,-5.81333 -4.8,-7.6 -1.17335,0.82667 -2.65335,1.24 -4.44,1.24"
         id="path4078"
         inkscape:connector-curvature="0" />
      <path
         d="m 242.42017,424.36328 0,22.76 -2,0 c -3.38668,0 -6.30668,-1.33333 -8.76,-4 -2.42667,-2.69332 -3.64001,-5.89332 -3.64,-9.6 -1e-5,-1.78665 0.10666,-3.33331 0.32,-4.64 0.23999,-1.33331 0.71999,-2.83998 1.44,-4.52 l 4.8,0 c -0.69334,1.92002 -1.17334,3.60002 -1.44,5.04 -0.26668,1.41335 -0.40001,2.78668 -0.4,4.12 -1e-5,1.62668 0.45332,3.26668 1.36,4.92 0.90665,1.65334 2.10665,2.89334 3.6,3.72 l 0,-17.8 4.72,0"
         id="path4080"
         inkscape:connector-curvature="0" />
      <path
         d="m 259.80767,446.80328 -8.04,0 c -1.92001,0 -3.60001,-0.81333 -5.04,-2.44 -1.41334,-1.65333 -2.12,-3.62666 -2.12,-5.92 0,-3.59998 1.39999,-6.89331 4.2,-9.88 2.82665,-3.01331 5.82665,-4.51997 9,-4.52 l 2,0 0,22.76 m -4.72,-4.32 0,-13.4 c -1.52001,0.88002 -2.82668,2.22669 -3.92,4.04 -1.06668,1.81335 -1.60001,3.58668 -1.6,5.32 -1e-5,1.44001 0.22666,2.48001 0.68,3.12 0.47999,0.61334 1.17332,0.92001 2.08,0.92 l 2.76,0"
         id="path4082"
         inkscape:connector-curvature="0" />
      <path
         d="m 263.02017,446.80328 0,-22.44 3.76,0 c 2.61332,3e-5 4.93332,0.65336 6.96,1.96 2.45331,1.57336 3.67998,3.76002 3.68,6.56 l 0,13.92 -4.72,0 0,-13.52 c -2e-5,-1.11998 -0.42668,-2.07998 -1.28,-2.88 -0.82668,-0.79998 -2.05335,-1.29331 -3.68,-1.48 l 0,17.88 -4.72,0"
         id="path4084"
         inkscape:connector-curvature="0" />
      <path
         d="m 280.20767,414.68328 4.72,0 0,9.68 7.36,0 0,4.32 -7.36,0 0,12.32 c -10e-6,1.20001 0.63999,1.80001 1.92,1.8 0.45332,1e-5 0.86665,-0.0533 1.24,-0.16 0.37332,-0.13333 1.05332,-0.47999 2.04,-1.04 l 0,4.68 c -0.64001,0.26667 -1.38668,0.46667 -2.24,0.6 -0.82668,0.16 -1.44001,0.24 -1.84,0.24 -1.54668,0 -2.90668,-0.61333 -4.08,-1.84 -1.17334,-1.22666 -1.76001,-2.65333 -1.76,-4.28 l 0,-26.32"
         id="path4086"
         inkscape:connector-curvature="0" />
      <path
         d="m 308.27954,424.36328 0,22.76 -2,0 c -3.38668,0 -6.30667,-1.33333 -8.76,-4 -2.42667,-2.69332 -3.64,-5.89332 -3.64,-9.6 0,-1.78665 0.10667,-3.33331 0.32,-4.64 0.24,-1.33331 0.72,-2.83998 1.44,-4.52 l 4.8,0 c -0.69334,1.92002 -1.17334,3.60002 -1.44,5.04 -0.26667,1.41335 -0.40001,2.78668 -0.4,4.12 -10e-6,1.62668 0.45333,3.26668 1.36,4.92 0.90666,1.65334 2.10666,2.89334 3.6,3.72 l 0,-17.8 4.72,0"
         id="path4088"
         inkscape:connector-curvature="0" />
      <path
         d="m 311.06704,446.80328 0,-22.44 11.72,0 c 3.19998,3e-5 5.89332,0.80003 8.08,2.4 2.21331,1.60002 3.31998,3.58669 3.32,5.96 l 0,14.08 -4.72,0 0,-13.52 c -2e-5,-1.19998 -0.41335,-2.21331 -1.24,-3.04 -0.80002,-0.82665 -1.88002,-1.34665 -3.24,-1.56 l 0,18.12 -4.72,0 0,-18.12 -4.48,0 0,18.12 -4.72,0"
         id="path4090"
         inkscape:connector-curvature="0" />
      <path
         d="m 359.70329,442.48328 0,4.88 c -2.72001,0 -5.22668,-1.32 -7.52,-3.96 -1.94667,-2.23999 -3.52,-5.14665 -4.72,-8.72 -1.09333,-3.22665 -1.64,-6.15998 -1.64,-8.8 0,-3.17331 0.62667,-5.7733 1.88,-7.8 1.62666,-2.63996 4.17333,-3.95996 7.64,-3.96 0.77332,4e-5 1.89332,0.13337 3.36,0.4 0.69332,0.13337 1.57332,0.3067 2.64,0.52 l 0,4.48 c -1.33335,-0.34664 -2.46668,-0.5733 -3.4,-0.68 -0.93334,-0.10663 -1.80001,-0.15997 -2.6,-0.16 -1.78667,3e-5 -3.01334,0.72003 -3.68,2.16 -0.48001,1.04003 -0.72001,2.72003 -0.72,5.04 -10e-6,3.44002 0.82666,6.96002 2.48,10.56 1.83999,4.02668 3.93332,6.04001 6.28,6.04"
         id="path4092"
         inkscape:connector-curvature="0" />
      <path
         d="m 376.79985,446.80328 -8.04,0 c -1.92,0 -3.6,-0.81333 -5.04,-2.44 -1.41333,-1.65333 -2.12,-3.62666 -2.12,-5.92 0,-3.59998 1.4,-6.89331 4.2,-9.88 2.82666,-3.01331 5.82666,-4.51997 9,-4.52 l 2,0 0,22.76 m -4.72,-4.32 0,-13.4 c -1.52001,0.88002 -2.82667,2.22669 -3.92,4.04 -1.06667,1.81335 -1.6,3.58668 -1.6,5.32 0,1.44001 0.22666,2.48001 0.68,3.12 0.48,0.61334 1.17333,0.92001 2.08,0.92 l 2.76,0"
         id="path4094"
         inkscape:connector-curvature="0" />
      <path
         d="m 379.45142,446.24328 0,-4.48 c 0.98666,0.32001 2.01333,0.57334 3.08,0.76 1.06666,0.18667 2.21332,0.28001 3.44,0.28 0.90665,1e-5 1.59999,-0.13333 2.08,-0.4 0.63999,-0.34666 0.95999,-0.93332 0.96,-1.76 -10e-6,-1.27999 -0.76001,-2.37332 -2.28,-3.28 -1.49334,-0.93332 -2.96001,-1.85332 -4.4,-2.76 -1.57334,-1.33332 -2.36001,-3.06665 -2.36,-5.2 -1e-5,-1.83998 0.65333,-3.22664 1.96,-4.16 1.11999,-0.79997 2.57332,-1.19997 4.36,-1.2 0.55999,3e-5 1.30665,0.08 2.24,0.24 0.95998,0.16003 1.95998,0.37336 3,0.64 l 0,4.24 c -1.22668,-0.34664 -2.20001,-0.55998 -2.92,-0.64 -0.69335,-0.10664 -1.46668,-0.15998 -2.32,-0.16 -0.64001,2e-5 -1.06668,0.08 -1.28,0.24 -0.21334,0.16002 -0.32001,0.49335 -0.32,1 -10e-6,0.96002 0.77332,1.82669 2.32,2.6 2.31999,1.17335 3.77332,2.02668 4.36,2.56 1.57331,1.44001 2.35998,3.41335 2.36,5.92 -2e-5,1.60001 -0.77335,3.08001 -2.32,4.44 -1.52002,1.33334 -3.36001,2 -5.52,2 -2.16001,0 -4.30667,-0.29333 -6.44,-0.88"
         id="path4096"
         inkscape:connector-curvature="0" />
      <path
         d="m 408.30517,424.96328 0,4.16 c -1.54668,-0.34664 -2.61335,-0.55998 -3.2,-0.64 -0.56001,-0.08 -1.29335,-0.11998 -2.2,-0.12 -0.90668,2e-5 -1.54668,0.33336 -1.92,1 -0.45334,0.80002 -0.68001,2.29335 -0.68,4.48 -10e-6,2.34668 0.54666,4.41335 1.64,6.2 1.11999,1.78668 2.45332,2.68001 4,2.68 l 0,4.4 c -3.22668,0 -5.85334,-1.46666 -7.88,-4.4 -1.81334,-2.61332 -2.72,-5.55999 -2.72,-8.84 0,-3.17331 0.61333,-5.57331 1.84,-7.2 1.33333,-1.75997 3.34666,-2.63997 6.04,-2.64 1.22665,3e-5 2.91998,0.30669 5.08,0.92"
         id="path4098"
         inkscape:connector-curvature="0" />
      <path
         d="m 423.71392,446.80328 -8.04,0 c -1.92001,0 -3.60001,-0.81333 -5.04,-2.44 -1.41334,-1.65333 -2.12,-3.62666 -2.12,-5.92 0,-3.59998 1.39999,-6.89331 4.2,-9.88 2.82665,-3.01331 5.82665,-4.51997 9,-4.52 l 2,0 0,22.76 m -4.72,-4.32 0,-13.4 c -1.52001,0.88002 -2.82668,2.22669 -3.92,4.04 -1.06668,1.81335 -1.60001,3.58668 -1.6,5.32 -1e-5,1.44001 0.22666,2.48001 0.68,3.12 0.47999,0.61334 1.17332,0.92001 2.08,0.92 l 2.76,0"
         id="path4100"
         inkscape:connector-curvature="0" />
      <path
         d="m 441.52642,446.80328 -6.76,0 c -2.13334,0 -4.05334,-0.82666 -5.76,-2.48 -1.78667,-1.73333 -2.68,-3.77332 -2.68,-6.12 0,-3.14665 1.06666,-6.06665 3.2,-8.76 1.94666,-2.45331 4.37332,-4.25331 7.28,-5.4 l 0,-9.36 4.72,0 0,32.12 m -4.72,-4.32 0,-13.4 c -1.52001,0.88002 -2.82668,2.22669 -3.92,4.04 -1.06668,1.81335 -1.60001,3.58668 -1.6,5.32 -1e-5,1.44001 0.22666,2.48001 0.68,3.12 0.47999,0.61334 1.17332,0.92001 2.08,0.92 l 2.76,0"
         id="path4102"
         inkscape:connector-curvature="0" />
      <path
         d="m 458.81892,434.24328 -9.96,0 c -1e-5,2.61335 0.61332,4.68001 1.84,6.2 1.25332,1.52001 3.02665,2.28001 5.32,2.28 l 0,4.4 c -3.97335,0 -7.04001,-1.52 -9.2,-4.56 -1.78667,-2.50666 -2.68,-5.39999 -2.68,-8.68 0,-2.87998 0.61333,-5.19998 1.84,-6.96 1.33333,-1.91997 3.18666,-2.87997 5.56,-2.88 2.34665,3e-5 4.14665,0.90669 5.4,2.72 1.25331,1.81336 1.87998,4.30669 1.88,7.48 m -7.28,-5.88 c -1.38668,2e-5 -2.25334,0.57335 -2.6,1.72 l 5.08,0 c -0.16001,-0.50665 -0.46668,-0.91998 -0.92,-1.24 -0.45335,-0.31998 -0.97335,-0.47998 -1.56,-0.48"
         id="path4104"
         inkscape:connector-curvature="0" />
      <path
         d="m 470.28579,414.68328 4.96,0 0,27.8 9.88,0 0,4.32 -14.84,0 0,-32.12"
         id="path4106"
         inkscape:connector-curvature="0" />
      <path
         d="m 501.76079,446.80328 -8.04,0 c -1.92001,0 -3.6,-0.81333 -5.04,-2.44 -1.41333,-1.65333 -2.12,-3.62666 -2.12,-5.92 0,-3.59998 1.4,-6.89331 4.2,-9.88 2.82666,-3.01331 5.82666,-4.51997 9,-4.52 l 2,0 0,22.76 m -4.72,-4.32 0,-13.4 c -1.52001,0.88002 -2.82667,2.22669 -3.92,4.04 -1.06667,1.81335 -1.6,3.58668 -1.6,5.32 0,1.44001 0.22666,2.48001 0.68,3.12 0.47999,0.61334 1.17333,0.92001 2.08,0.92 l 2.76,0"
         id="path4108"
         inkscape:connector-curvature="0" />
      <path
         d="m 504.37329,446.24328 0,-4.48 c 0.98667,0.32001 2.01333,0.57334 3.08,0.76 1.06666,0.18667 2.21333,0.28001 3.44,0.28 0.90666,1e-5 1.59999,-0.13333 2.08,-0.4 0.63999,-0.34666 0.95999,-0.93332 0.96,-1.76 -1e-5,-1.27999 -0.76001,-2.37332 -2.28,-3.28 -1.49334,-0.93332 -2.96,-1.85332 -4.4,-2.76 -1.57333,-1.33332 -2.36,-3.06665 -2.36,-5.2 0,-1.83998 0.65333,-3.22664 1.96,-4.16 1.12,-0.79997 2.57333,-1.19997 4.36,-1.2 0.55999,3e-5 1.30666,0.08 2.24,0.24 0.95999,0.16003 1.95999,0.37336 3,0.64 l 0,4.24 c -1.22668,-0.34664 -2.20001,-0.55998 -2.92,-0.64 -0.69334,-0.10664 -1.46667,-0.15998 -2.32,-0.16 -0.64001,2e-5 -1.06667,0.08 -1.28,0.24 -0.21334,0.16002 -0.32001,0.49335 -0.32,1 -1e-5,0.96002 0.77333,1.82669 2.32,2.6 2.31999,1.17335 3.77332,2.02668 4.36,2.56 1.57332,1.44001 2.35999,3.41335 2.36,5.92 -10e-6,1.60001 -0.77335,3.08001 -2.32,4.44 -1.52001,1.33334 -3.36001,2 -5.52,2 -2.16,0 -4.30667,-0.29333 -6.44,-0.88"
         id="path4110"
         inkscape:connector-curvature="0" />
      <path
         d="m 535.14704,434.24328 -9.96,0 c 0,2.61335 0.61333,4.68001 1.84,6.2 1.25333,1.52001 3.02666,2.28001 5.32,2.28 l 0,4.4 c -3.97334,0 -7.04,-1.52 -9.2,-4.56 -1.78667,-2.50666 -2.68,-5.39999 -2.68,-8.68 0,-2.87998 0.61333,-5.19998 1.84,-6.96 1.33333,-1.91997 3.18666,-2.87997 5.56,-2.88 2.34666,3e-5 4.14666,0.90669 5.4,2.72 1.25332,1.81336 1.87999,4.30669 1.88,7.48 m -7.28,-5.88 c -1.38667,2e-5 -2.25334,0.57335 -2.6,1.72 l 5.08,0 c -0.16001,-0.50665 -0.46668,-0.91998 -0.92,-1.24 -0.45334,-0.31998 -0.97334,-0.47998 -1.56,-0.48"
         id="path4112"
         inkscape:connector-curvature="0" />
      <path
         d="m 542.03517,446.80328 -4.72,0 0,-14.72 c -10e-6,-2.21331 0.98666,-4.10664 2.96,-5.68 1.97332,-1.57331 4.43999,-2.35997 7.4,-2.36 l 0,4.32 c -1.81335,2e-5 -3.21335,0.33336 -4.2,1 -0.96001,0.66669 -1.44001,1.56002 -1.44,2.68 l 0,14.76"
         id="path4114"
         inkscape:connector-curvature="0" />
      <path
         d="m 217.73704,497.36328 c -2.02667,0 -3.73334,-0.13333 -5.12,-0.4 -1.36,-0.26666 -2.69333,-0.65333 -4,-1.16 l 0,-4.84 c 1.78667,0.72001 3.29333,1.21334 4.52,1.48 1.25333,0.24001 2.67999,0.36001 4.28,0.36 1.30666,1e-5 2.29332,-0.31999 2.96,-0.96 0.79999,-0.77332 1.19999,-2.02666 1.2,-3.76 -1e-5,-1.65332 -1.00001,-3.35998 -3,-5.12 -1.89334,-1.65331 -3.77334,-3.30665 -5.64,-4.96 -2.02667,-2.26664 -3.04,-4.81331 -3.04,-7.64 0,-1.78663 0.61333,-3.23997 1.84,-4.36 1.38666,-1.2533 3.39999,-1.87996 6.04,-1.88 0.77332,4e-5 1.63999,0.0934 2.6,0.28 0.95999,0.1867 1.99999,0.44004 3.12,0.76 l 0,4.44 c -1.20001,-0.31997 -2.33335,-0.54664 -3.4,-0.68 -1.04001,-0.15997 -1.85334,-0.23997 -2.44,-0.24 -1.86667,3e-5 -2.80001,0.84003 -2.8,2.52 -1e-5,1.52003 1.01333,3.17336 3.04,4.96 1.89332,1.65336 3.79999,3.30669 5.72,4.96 2.05332,2.21335 3.07998,4.56001 3.08,7.04 -2e-5,2.80001 -0.92002,5.06667 -2.76,6.8 -1.70668,1.6 -3.77334,2.4 -6.2,2.4"
         id="path4116"
         inkscape:connector-curvature="0" />
      <path
         d="m 229.03579,464.68328 4.72,0 0,9.68 7.36,0 0,4.32 -7.36,0 0,12.32 c -1e-5,1.20001 0.63999,1.80001 1.92,1.8 0.45333,1e-5 0.86666,-0.0533 1.24,-0.16 0.37332,-0.13333 1.05332,-0.47999 2.04,-1.04 l 0,4.68 c -0.64001,0.26667 -1.38668,0.46667 -2.24,0.6 -0.82667,0.16 -1.44001,0.24 -1.84,0.24 -1.54667,0 -2.90667,-0.61333 -4.08,-1.84 -1.17333,-1.22666 -1.76,-2.65333 -1.76,-4.28 l 0,-26.32"
         id="path4118"
         inkscape:connector-curvature="0" />
      <path
         d="m 250.22767,497.12328 c -2.85334,0 -4.92001,-1.24 -6.2,-3.72 -1.14667,-2.23999 -1.72001,-5.59999 -1.72,-10.08 -1e-5,-2.69331 0.58666,-4.83998 1.76,-6.44 1.38666,-1.89331 3.43999,-2.83997 6.16,-2.84 2.71998,3e-5 4.77332,0.96003 6.16,2.88 1.17331,1.65336 1.75998,3.80002 1.76,6.44 -2e-5,4.10668 -0.56002,7.32001 -1.68,9.64 -1.33335,2.74667 -3.41335,4.12 -6.24,4.12 m 0,-4.32 c 1.17332,1e-5 1.95998,-0.71999 2.36,-2.16 0.39998,-1.46666 0.59998,-3.89332 0.6,-7.28 -2e-5,-1.83998 -0.21335,-3.13331 -0.64,-3.88 -0.40002,-0.74664 -1.17335,-1.11998 -2.32,-1.12 -1.12001,2e-5 -1.89334,0.38669 -2.32,1.16 -0.42668,0.74669 -0.64001,2.02669 -0.64,3.84 -1e-5,6.29334 0.98666,9.44001 2.96,9.44"
         id="path4120"
         inkscape:connector-curvature="0" />
      <path
         d="m 273.07079,474.96328 0,4.16 c -1.54668,-0.34664 -2.61334,-0.55998 -3.2,-0.64 -0.56001,-0.08 -1.29334,-0.11998 -2.2,-0.12 -0.90667,2e-5 -1.54667,0.33336 -1.92,1 -0.45334,0.80002 -0.68,2.29335 -0.68,4.48 0,2.34668 0.54666,4.41335 1.64,6.2 1.11999,1.78668 2.45332,2.68001 4,2.68 l 0,4.4 c -3.22667,0 -5.85334,-1.46666 -7.88,-4.4 -1.81333,-2.61332 -2.72,-5.55999 -2.72,-8.84 0,-3.17331 0.61333,-5.57331 1.84,-7.2 1.33333,-1.75997 3.34666,-2.63997 6.04,-2.64 1.22666,3e-5 2.91999,0.30669 5.08,0.92"
         id="path4122"
         inkscape:connector-curvature="0" />
      <path
         d="m 280.16204,496.80328 -4.72,0 0,-32.12 4.72,0 0,15.24 0.28,0 c 0.53333,2e-5 0.90666,-0.0533 1.12,-0.16 0.37333,-0.18665 0.70666,-0.59998 1,-1.24 l 1.96,-4.16 5,0 -2.28,4.88 c -0.37335,0.80002 -0.65335,1.37335 -0.84,1.72 -0.32001,0.53335 -0.72001,1.02669 -1.2,1.48 0.37332,0.50668 0.70666,1.21335 1,2.12 0.31999,0.88002 0.55999,1.56001 0.72,2.04 l 3.08,10.2 -4.92,0 -2.84,-9.4 c -0.21334,-0.77332 -0.36001,-1.27999 -0.44,-1.52 -0.24001,-0.79998 -0.48001,-1.34665 -0.72,-1.64 l -0.92,0 0,12.56"
         id="path4124"
         inkscape:connector-curvature="0" />
      <path
         d="m 301.06704,464.68328 4.96,0 0,32.12 -4.96,0 0,-32.12"
         id="path4126"
         inkscape:connector-curvature="0" />
      <path
         d="m 309.19204,496.80328 0,-22.44 11.72,0 c 3.19998,3e-5 5.89332,0.80003 8.08,2.4 2.21331,1.60002 3.31998,3.58669 3.32,5.96 l 0,14.08 -4.72,0 0,-13.52 c -2e-5,-1.19998 -0.41335,-2.21331 -1.24,-3.04 -0.80002,-0.82665 -1.88002,-1.34665 -3.24,-1.56 l 0,18.12 -4.72,0 0,-18.12 -4.48,0 0,18.12 -4.72,0"
         id="path4128"
         inkscape:connector-curvature="0" />
      <path
         d="m 349.72954,496.80328 -8.04,0 c -1.92001,0 -3.6,-0.81333 -5.04,-2.44 -1.41333,-1.65333 -2.12,-3.62666 -2.12,-5.92 0,-3.59998 1.4,-6.89331 4.2,-9.88 2.82666,-3.01331 5.82666,-4.51997 9,-4.52 l 2,0 0,22.76 m -4.72,-4.32 0,-13.4 c -1.52001,0.88002 -2.82667,2.22669 -3.92,4.04 -1.06667,1.81335 -1.6,3.58668 -1.6,5.32 0,1.44001 0.22666,2.48001 0.68,3.12 0.47999,0.61334 1.17333,0.92001 2.08,0.92 l 2.76,0"
         id="path4130"
         inkscape:connector-curvature="0" />
      <path
         d="m 357.02204,499.40328 c 1.46666,0 2.67999,-0.25333 3.64,-0.76 0.95999,-0.50666 1.59999,-1.12 1.92,-1.84 l -3.08,0 c -1.92001,0 -3.6,-0.82666 -5.04,-2.48 -1.41333,-1.67999 -2.12,-3.65332 -2.12,-5.92 0,-3.59998 1.4,-6.89331 4.2,-9.88 2.79999,-2.98664 5.78666,-4.47997 8.96,-4.48 l 2.04,0 0,22.56 c -2e-5,1.86667 -1.01335,3.52 -3.04,4.96 -2.02668,1.44 -4.52001,2.16 -7.48,2.16 l 0,-4.32 m 5.8,-6.92 0,-13.4 c -1.52001,0.88002 -2.82667,2.22669 -3.92,4.04 -1.06667,1.81335 -1.6,3.58668 -1.6,5.32 0,1.44001 0.22666,2.48001 0.68,3.12 0.47999,0.61334 1.17333,0.92001 2.08,0.92 l 2.76,0"
         id="path4132"
         inkscape:connector-curvature="0" />
      <path
         d="m 384.83454,484.24328 -9.96,0 c 0,2.61335 0.61333,4.68001 1.84,6.2 1.25333,1.52001 3.02666,2.28001 5.32,2.28 l 0,4.4 c -3.97334,0 -7.04,-1.52 -9.2,-4.56 -1.78667,-2.50666 -2.68,-5.39999 -2.68,-8.68 0,-2.87998 0.61333,-5.19998 1.84,-6.96 1.33333,-1.91997 3.18666,-2.87997 5.56,-2.88 2.34666,3e-5 4.14666,0.90669 5.4,2.72 1.25332,1.81336 1.87999,4.30669 1.88,7.48 m -7.28,-5.88 c -1.38667,2e-5 -2.25334,0.57335 -2.6,1.72 l 5.08,0 c -0.16001,-0.50665 -0.46668,-0.91998 -0.92,-1.24 -0.45334,-0.31998 -0.97334,-0.47998 -1.56,-0.48"
         id="path4134"
         inkscape:connector-curvature="0" />
      <path
         d="m 396.30142,496.80328 0,-32.12 8.32,0 c 1.97332,4e-5 3.70665,0.77337 5.2,2.32 1.49331,1.5467 2.23998,3.36003 2.24,5.44 -2e-5,3.20002 -1.04002,6.09336 -3.12,8.68 -1.94668,2.42668 -4.50668,4.25335 -7.68,5.48 l 0,10.2 -4.96,0 m 4.96,-27.8 0,12.44 c 1.75999,-0.87998 3.14665,-2.05331 4.16,-3.52 1.01332,-1.49331 1.51998,-3.26664 1.52,-5.32 -2e-5,-1.11997 -0.28002,-1.99997 -0.84,-2.64 -0.56001,-0.63997 -1.29335,-0.95997 -2.2,-0.96 l -2.64,0"
         id="path4136"
         inkscape:connector-curvature="0" />
      <path
         d="m 417.50392,496.80328 -4.72,0 0,-14.72 c -1e-5,-2.21331 0.98666,-4.10664 2.96,-5.68 1.97332,-1.57331 4.43999,-2.35997 7.4,-2.36 l 0,4.32 c -1.81335,2e-5 -3.21335,0.33336 -4.2,1 -0.96001,0.66669 -1.44001,1.56002 -1.44,2.68 l 0,14.76"
         id="path4138"
         inkscape:connector-curvature="0" />
      <path
         d="m 432.64954,497.12328 c -2.85334,0 -4.92,-1.24 -6.2,-3.72 -1.14667,-2.23999 -1.72,-5.59999 -1.72,-10.08 0,-2.69331 0.58667,-4.83998 1.76,-6.44 1.38666,-1.89331 3.43999,-2.83997 6.16,-2.84 2.71999,3e-5 4.77332,0.96003 6.16,2.88 1.17332,1.65336 1.75998,3.80002 1.76,6.44 -2e-5,4.10668 -0.56002,7.32001 -1.68,9.64 -1.33335,2.74667 -3.41334,4.12 -6.24,4.12 m 0,-4.32 c 1.17332,1e-5 1.95999,-0.71999 2.36,-2.16 0.39999,-1.46666 0.59999,-3.89332 0.6,-7.28 -10e-6,-1.83998 -0.21334,-3.13331 -0.64,-3.88 -0.40001,-0.74664 -1.17334,-1.11998 -2.32,-1.12 -1.12001,2e-5 -1.89334,0.38669 -2.32,1.16 -0.42667,0.74669 -0.64001,2.02669 -0.64,3.84 -1e-5,6.29334 0.98666,9.44001 2.96,9.44"
         id="path4140"
         inkscape:connector-curvature="0" />
      <path
         d="m 443.29267,464.68328 4.72,0 0,4.72 -4.72,0 0,-4.72 m 0,9.68 4.72,0 0,23.08 c -1e-5,1.6 -0.60001,3.04 -1.8,4.32 -1.17334,1.30666 -2.52001,1.96 -4.04,1.96 -0.42667,0 -1.04,-0.0933 -1.84,-0.28 -0.82667,-0.16 -1.57333,-0.41334 -2.24,-0.76 l 0,-4.6 c 0.72,0.45334 1.37333,0.78667 1.96,1 0.56,0.21333 1,0.32 1.32,0.32 1.28,0 1.91999,-0.65333 1.92,-1.96 l 0,-23.08"
         id="path4142"
         inkscape:connector-curvature="0" />
      <path
         d="m 465.30329,484.24328 -9.96,0 c 0,2.61335 0.61333,4.68001 1.84,6.2 1.25333,1.52001 3.02666,2.28001 5.32,2.28 l 0,4.4 c -3.97334,0 -7.04,-1.52 -9.2,-4.56 -1.78667,-2.50666 -2.68,-5.39999 -2.68,-8.68 0,-2.87998 0.61333,-5.19998 1.84,-6.96 1.33333,-1.91997 3.18666,-2.87997 5.56,-2.88 2.34666,3e-5 4.14666,0.90669 5.4,2.72 1.25332,1.81336 1.87999,4.30669 1.88,7.48 m -7.28,-5.88 c -1.38667,2e-5 -2.25334,0.57335 -2.6,1.72 l 5.08,0 c -0.16001,-0.50665 -0.46668,-0.91998 -0.92,-1.24 -0.45334,-0.31998 -0.97334,-0.47998 -1.56,-0.48"
         id="path4144"
         inkscape:connector-curvature="0" />
      <path
         d="m 479.71142,474.96328 0,4.16 c -1.54668,-0.34664 -2.61335,-0.55998 -3.2,-0.64 -0.56001,-0.08 -1.29335,-0.11998 -2.2,-0.12 -0.90668,2e-5 -1.54668,0.33336 -1.92,1 -0.45334,0.80002 -0.68001,2.29335 -0.68,4.48 -10e-6,2.34668 0.54666,4.41335 1.64,6.2 1.11999,1.78668 2.45332,2.68001 4,2.68 l 0,4.4 c -3.22668,0 -5.85334,-1.46666 -7.88,-4.4 -1.81334,-2.61332 -2.72,-5.55999 -2.72,-8.84 0,-3.17331 0.61333,-5.57331 1.84,-7.2 1.33333,-1.75997 3.34666,-2.63997 6.04,-2.64 1.22665,3e-5 2.91998,0.30669 5.08,0.92"
         id="path4146"
         inkscape:connector-curvature="0" />
      <path
         d="m 482.08267,464.68328 4.72,0 0,9.68 7.36,0 0,4.32 -7.36,0 0,12.32 c -10e-6,1.20001 0.63999,1.80001 1.92,1.8 0.45332,1e-5 0.86665,-0.0533 1.24,-0.16 0.37332,-0.13333 1.05332,-0.47999 2.04,-1.04 l 0,4.68 c -0.64001,0.26667 -1.38668,0.46667 -2.24,0.6 -0.82668,0.16 -1.44001,0.24 -1.84,0.24 -1.54668,0 -2.90668,-0.61333 -4.08,-1.84 -1.17334,-1.22666 -1.76001,-2.65333 -1.76,-4.28 l 0,-26.32"
         id="path4148"
         inkscape:connector-curvature="0" />
    </g>
    <path
       sodipodi:type="arc"
       style="fill:none;stroke:#0065bd;stroke-width:4.99978836000000015;stroke-linecap:square;stroke-linejoin:round;stroke-miterlimit:4;stroke-opacity:1;stroke-dasharray:none"
       id="path3791"
       sodipodi:cx="620.87976"
       sodipodi:cy="298.81705"
       sodipodi:rx="205.56625"
       sodipodi:ry="188.14539"
       d="m 826.44601,298.81705 a 205.56625,188.14539 0 1 1 -411.1325,0 205.56625,188.14539 0 1 1 411.1325,0 z"
       transform="matrix(1.2008871,0,0,1.3120804,-409.38626,-67.86457)" />
  </g>
</svg>
